<svg t="1719057762862" class="icon" viewBox="0 0 1024 1024" version="1.1" xmlns="http://www.w3.org/2000/svg"
  p-id="17027" width="200" height="200">
  <path
    d="M210.816 85.333333H813.226667A125.482667 125.482667 0 0 1 938.666667 210.816V813.226667A125.482667 125.482667 0 0 1 813.184 938.666667H210.773333A125.482667 125.482667 0 0 1 85.333333 813.184V210.773333A125.482667 125.482667 0 0 1 210.816 85.333333z"
    fill="#29AB91" p-id="17028"></path>
  <path
    d="M218.666667 739.413333h586.666666a5.504 5.504 0 0 1 3.754667 1.493334 4.992 4.992 0 0 1 1.578667 3.584v10.24a5.205333 5.205333 0 0 1-5.333334 5.034666h-250.154666L620.757333 810.666667h-33.109333l-65.621333-50.901334h-19.712L436.650667 810.666667H403.626667l65.621333-50.901334H218.666667A5.205333 5.205333 0 0 1 213.333333 754.688v-10.154667a4.949333 4.949333 0 0 1 1.578667-3.626666 5.333333 5.333333 0 0 1 3.754667-1.450667zM522.666667 242.944H554.666667v19.712h-85.333334v-19.712h32V213.333333h21.333334v29.610667zM234.666667 295.552h554.666666c11.776 0 21.333333 9.173333 21.333334 20.522667v369.92a20.949333 20.949333 0 0 1-21.333334 20.565333h-554.666666a20.949333 20.949333 0 0 1-21.333334-20.565333v-369.92c0-11.349333 9.557333-20.522667 21.333334-20.522667z"
    fill="#FFFFFF" p-id="17029"></path>
</svg>